{
	"accessors" : 
	[
		{
			"bufferView" : 2,
			"byteOffset" : 0,
			"componentType" : 5126,
			"count" : 9972,
			"max" : 
			[
				1,
				1,
				1,
				1
			],
			"min" : 
			[
				0.006584956776350737,
				0.006584956776350737,
				0.006584956776350737,
				1
			],
			"name" : "accessor_color_m0-PolyPaper22_-354972",
			"type" : "VEC4"
		},
		{
			"bufferView" : 2,
			"byteOffset" : 159552,
			"componentType" : 5126,
			"count" : 9814,
			"max" : 
			[
				1,
				1,
				1,
				1
			],
			"min" : 
			[
				0.006584956776350737,
				0.006584956776350737,
				0.006584956776350737,
				1
			],
			"name" : "accessor_color_m1-PolyPaper23_-354970",
			"type" : "VEC4"
		},
		{
			"bufferView" : 2,
			"byteOffset" : 316576,
			"componentType" : 5126,
			"count" : 9600,
			"max" : 
			[
				1,
				0.835527777671814,
				0.2508402466773987,
				1
			],
			"min" : 
			[
				0.006584956776350737,
				0.006584956776350737,
				0.006584956776350737,
				1
			],
			"name" : "accessor_color_m2-PolyPaper20_-189532",
			"type" : "VEC4"
		},
		{
			"bufferView" : 2,
			"byteOffset" : 470176,
			"componentType" : 5126,
			"count" : 9462,
			"max" : 
			[
				1,
				1,
				1,
				1
			],
			"min" : 
			[
				5.692175545846112e-05,
				0.006584956776350737,
				0.006584956776350737,
				1
			],
			"name" : "accessor_color_m3-PolyPaper22_-360912",
			"type" : "VEC4"
		},
		{
			"bufferView" : 2,
			"byteOffset" : 621568,
			"componentType" : 5126,
			"count" : 975,
			"max" : 
			[
				0.6800203323364258,
				0.6800203323364258,
				0.6800203323364258,
				0.2509804
			],
			"min" : 
			[
				0.6800203323364258,
				0.6800203323364258,
				0.6800203323364258,
				0.2509804
			],
			"name" : "accessor_color_m4-PolyGlass24_-357966",
			"type" : "VEC4"
		},
		{
			"bufferView" : 2,
			"byteOffset" : 637168,
			"componentType" : 5126,
			"count" : 9984,
			"max" : 
			[
				1,
				1,
				1,
				1
			],
			"min" : 
			[
				0.006584956776350737,
				0.006584956776350737,
				0.006584956776350737,
				1
			],
			"name" : "accessor_color_m5-PolyPaper23_-357964",
			"type" : "VEC4"
		},
		{
			"bufferView" : 2,
			"byteOffset" : 796912,
			"componentType" : 5126,
			"count" : 60,
			"max" : 
			[
				1,
				1,
				1,
				1
			],
			"min" : 
			[
				1,
				1,
				1,
				1
			],
			"name" : "accessor_color_m6-PolyGem25_-360228",
			"type" : "VEC4"
		},
		{
			"bufferView" : 0,
			"byteOffset" : 0,
			"componentType" : 5123,
			"count" : 14874,
			"max" : 
			[
				9971
			],
			"min" : 
			[
				0
			],
			"name" : "accessor_indices_0_m0-PolyPaper22_-354972",
			"type" : "SCALAR"
		},
		{
			"bufferView" : 0,
			"byteOffset" : 29748,
			"componentType" : 5123,
			"count" : 14238,
			"max" : 
			[
				9813
			],
			"min" : 
			[
				0
			],
			"name" : "accessor_indices_0_m1-PolyPaper23_-354970",
			"type" : "SCALAR"
		},
		{
			"bufferView" : 0,
			"byteOffset" : 58224,
			"componentType" : 5123,
			"count" : 14340,
			"max" : 
			[
				9599
			],
			"min" : 
			[
				0
			],
			"name" : "accessor_indices_0_m2-PolyPaper20_-189532",
			"type" : "SCALAR"
		},
		{
			"bufferView" : 0,
			"byteOffset" : 86904,
			"componentType" : 5123,
			"count" : 14298,
			"max" : 
			[
				9461
			],
			"min" : 
			[
				0
			],
			"name" : "accessor_indices_0_m3-PolyPaper22_-360912",
			"type" : "SCALAR"
		},
		{
			"bufferView" : 0,
			"byteOffset" : 115500,
			"componentType" : 5123,
			"count" : 1803,
			"max" : 
			[
				974
			],
			"min" : 
			[
				0
			],
			"name" : "accessor_indices_0_m4-PolyGlass24_-357966",
			"type" : "SCALAR"
		},
		{
			"bufferView" : 0,
			"byteOffset" : 119106,
			"componentType" : 5123,
			"count" : 15228,
			"max" : 
			[
				9983
			],
			"min" : 
			[
				0
			],
			"name" : "accessor_indices_0_m5-PolyPaper23_-357964",
			"type" : "SCALAR"
		},
		{
			"bufferView" : 0,
			"byteOffset" : 149562,
			"componentType" : 5123,
			"count" : 90,
			"max" : 
			[
				59
			],
			"min" : 
			[
				0
			],
			"name" : "accessor_indices_0_m6-PolyGem25_-360228",
			"type" : "SCALAR"
		},
		{
			"bufferView" : 1,
			"byteOffset" : 119664,
			"componentType" : 5126,
			"count" : 9972,
			"max" : 
			[
				1,
				1,
				1
			],
			"min" : 
			[
				-1,
				-1,
				-1
			],
			"name" : "accessor_normal_m0-PolyPaper22_-354972",
			"type" : "VEC3"
		},
		{
			"bufferView" : 1,
			"byteOffset" : 357096,
			"componentType" : 5126,
			"count" : 9814,
			"max" : 
			[
				1,
				1,
				1
			],
			"min" : 
			[
				-1,
				-1,
				-1
			],
			"name" : "accessor_normal_m1-PolyPaper23_-354970",
			"type" : "VEC3"
		},
		{
			"bufferView" : 1,
			"byteOffset" : 590064,
			"componentType" : 5126,
			"count" : 9600,
			"max" : 
			[
				1,
				1,
				1
			],
			"min" : 
			[
				-1,
				-1,
				-0.9999999000000001
			],
			"name" : "accessor_normal_m2-PolyPaper20_-189532",
			"type" : "VEC3"
		},
		{
			"bufferView" : 1,
			"byteOffset" : 818808,
			"componentType" : 5126,
			"count" : 9462,
			"max" : 
			[
				1,
				1,
				1
			],
			"min" : 
			[
				-1,
				-1,
				-1
			],
			"name" : "accessor_normal_m3-PolyPaper22_-360912",
			"type" : "VEC3"
		},
		{
			"bufferView" : 1,
			"byteOffset" : 944052,
			"componentType" : 5126,
			"count" : 975,
			"max" : 
			[
				0.9999997,
				0.9999995,
				1
			],
			"min" : 
			[
				-0.9999997,
				-0.9999995,
				-1
			],
			"name" : "accessor_normal_m4-PolyGlass24_-357966",
			"type" : "VEC3"
		},
		{
			"bufferView" : 1,
			"byteOffset" : 1075560,
			"componentType" : 5126,
			"count" : 9984,
			"max" : 
			[
				1,
				1,
				1
			],
			"min" : 
			[
				-1,
				-1,
				-1
			],
			"name" : "accessor_normal_m5-PolyPaper23_-357964",
			"type" : "VEC3"
		},
		{
			"bufferView" : 1,
			"byteOffset" : 1196088,
			"componentType" : 5126,
			"count" : 60,
			"max" : 
			[
				1,
				1,
				1
			],
			"min" : 
			[
				-1,
				-1,
				-1
			],
			"name" : "accessor_normal_m6-PolyGem25_-360228",
			"type" : "VEC3"
		},
		{
			"bufferView" : 1,
			"byteOffset" : 0,
			"componentType" : 5126,
			"count" : 9972,
			"max" : 
			[
				1.617143,
				-4.181891,
				3.350032
			],
			"min" : 
			[
				-0.5738562,
				-4.964679,
				2.258424
			],
			"name" : "accessor_position_m0-PolyPaper22_-354972",
			"type" : "VEC3"
		},
		{
			"bufferView" : 1,
			"byteOffset" : 239328,
			"componentType" : 5126,
			"count" : 9814,
			"max" : 
			[
				3.105031,
				-2.009984,
				3.340011
			],
			"min" : 
			[
				-0.9250227,
				-4.980051,
				-0.3000052
			],
			"name" : "accessor_position_m1-PolyPaper23_-354970",
			"type" : "VEC3"
		},
		{
			"bufferView" : 1,
			"byteOffset" : 474864,
			"componentType" : 5126,
			"count" : 9600,
			"max" : 
			[
				0.7802427,
				-4.307419,
				2.629091
			],
			"min" : 
			[
				0.7001666,
				-4.335807,
				2.534439
			],
			"name" : "accessor_position_m2-PolyPaper20_-189532",
			"type" : "VEC3"
		},
		{
			"bufferView" : 1,
			"byteOffset" : 705264,
			"componentType" : 5126,
			"count" : 9462,
			"max" : 
			[
				3.114979,
				-2.009994,
				3.405016
			],
			"min" : 
			[
				-0.9250279,
				-4.979993,
				-0.2949945
			],
			"name" : "accessor_position_m3-PolyPaper22_-360912",
			"type" : "VEC3"
		},
		{
			"bufferView" : 1,
			"byteOffset" : 932352,
			"componentType" : 5126,
			"count" : 975,
			"max" : 
			[
				2.84403,
				-3.057295,
				3.32884
			],
			"min" : 
			[
				-0.4917405,
				-4.598031,
				2.445321
			],
			"name" : "accessor_position_m4-PolyGlass24_-357966",
			"type" : "VEC3"
		},
		{
			"bufferView" : 1,
			"byteOffset" : 955752,
			"componentType" : 5126,
			"count" : 9984,
			"max" : 
			[
				3.050004,
				-2.880039,
				3.213826
			],
			"min" : 
			[
				-0.8800147,
				-4.972703,
				-0.07002732
			],
			"name" : "accessor_position_m5-PolyPaper23_-357964",
			"type" : "VEC3"
		},
		{
			"bufferView" : 1,
			"byteOffset" : 1195368,
			"componentType" : 5126,
			"count" : 60,
			"max" : 
			[
				0.7823805,
				-3.839977,
				2.923251
			],
			"min" : 
			[
				-0.1868212,
				-4.337247,
				2.535982
			],
			"name" : "accessor_position_m6-PolyGem25_-360228",
			"type" : "VEC3"
		}
	],
	"asset" : 
	{
		"copyright" : "Unknown",
		"generator" : "glTF 1-to-2 Upgrader for Google Blocks",
		"version" : "2.0"
	},
	"bufferViews" : 
	[
		{
			"buffer" : 0,
			"byteLength" : 149742,
			"byteOffset" : 0,
			"name" : "ushortBufferView",
			"target" : 34963
		},
		{
			"buffer" : 0,
			"byteLength" : 1196808,
			"byteOffset" : 149742,
			"byteStride" : 12,
			"name" : "vec3BufferView",
			"target" : 34962
		},
		{
			"buffer" : 0,
			"byteLength" : 797872,
			"byteOffset" : 1346550,
			"byteStride" : 16,
			"name" : "vec4BufferView",
			"target" : 34962
		}
	],
	"buffers" : 
	[
		{
			"byteLength" : 2144422,
			"name" : "model",
			"uri" : "model.bin"
		}
	],
	"materials" : 
	[
		{
			"alphaMode" : "OPAQUE",
			"doubleSided" : false,
			"name" : "BlocksPaper",
			"pbrMetallicRoughness" : 
			{
				"baseColorFactor" : 
				[
					1,
					1,
					1,
					1
				],
				"metallicFactor" : 0,
				"roughnessFactor" : 0.6
			}
		},
		{
			"alphaMode" : "BLEND",
			"doubleSided" : false,
			"name" : "BlocksGlass",
			"pbrMetallicRoughness" : 
			{
				"baseColorFactor" : 
				[
					0.2,
					0.2,
					1,
					0.3
				],
				"metallicFactor" : 1,
				"roughnessFactor" : 0.4
			}
		},
		{
			"alphaMode" : "OPAQUE",
			"doubleSided" : true,
			"name" : "BlocksGem",
			"pbrMetallicRoughness" : 
			{
				"baseColorFactor" : 
				[
					1,
					0.4,
					1,
					1
				],
				"metallicFactor" : 0,
				"roughnessFactor" : 0.1
			}
		}
	],
	"meshes" : 
	[
		{
			"name" : "mesh_m0-PolyPaper22_-354972",
			"primitives" : 
			[
				{
					"attributes" : 
					{
						"COLOR_0" : 0,
						"NORMAL" : 14,
						"POSITION" : 21
					},
					"indices" : 7,
					"material" : 0,
					"mode" : 4
				}
			]
		},
		{
			"name" : "mesh_m1-PolyPaper23_-354970",
			"primitives" : 
			[
				{
					"attributes" : 
					{
						"COLOR_0" : 1,
						"NORMAL" : 15,
						"POSITION" : 22
					},
					"indices" : 8,
					"material" : 0,
					"mode" : 4
				}
			]
		},
		{
			"name" : "mesh_m2-PolyPaper20_-189532",
			"primitives" : 
			[
				{
					"attributes" : 
					{
						"COLOR_0" : 2,
						"NORMAL" : 16,
						"POSITION" : 23
					},
					"indices" : 9,
					"material" : 0,
					"mode" : 4
				}
			]
		},
		{
			"name" : "mesh_m3-PolyPaper22_-360912",
			"primitives" : 
			[
				{
					"attributes" : 
					{
						"COLOR_0" : 3,
						"NORMAL" : 17,
						"POSITION" : 24
					},
					"indices" : 10,
					"material" : 0,
					"mode" : 4
				}
			]
		},
		{
			"name" : "mesh_m4-PolyGlass24_-357966",
			"primitives" : 
			[
				{
					"attributes" : 
					{
						"COLOR_0" : 4,
						"NORMAL" : 18,
						"POSITION" : 25
					},
					"indices" : 11,
					"material" : 1,
					"mode" : 4
				}
			]
		},
		{
			"name" : "mesh_m5-PolyPaper23_-357964",
			"primitives" : 
			[
				{
					"attributes" : 
					{
						"COLOR_0" : 5,
						"NORMAL" : 19,
						"POSITION" : 26
					},
					"indices" : 12,
					"material" : 0,
					"mode" : 4
				}
			]
		},
		{
			"name" : "mesh_m6-PolyGem25_-360228",
			"primitives" : 
			[
				{
					"attributes" : 
					{
						"COLOR_0" : 6,
						"NORMAL" : 20,
						"POSITION" : 27
					},
					"indices" : 13,
					"material" : 2,
					"mode" : 4
				}
			]
		}
	],
	"nodes" : 
	[
		{
			"matrix" : 
			[
				1,
				0,
				0,
				0,
				0,
				1,
				0,
				0,
				0,
				0,
				1,
				0,
				0,
				0,
				0,
				1
			],
			"mesh" : 1,
			"name" : "node_MeshObject-406843712-PolyPaper23"
		},
		{
			"matrix" : 
			[
				1,
				0,
				0,
				0,
				0,
				1,
				0,
				0,
				0,
				0,
				1,
				0,
				0,
				0,
				0,
				1
			],
			"mesh" : 5,
			"name" : "node_MeshObject-434685888-PolyPaper23"
		},
		{
			"matrix" : 
			[
				1,
				0,
				0,
				0,
				0,
				1,
				0,
				0,
				0,
				0,
				1,
				0,
				0,
				0,
				0,
				1
			],
			"mesh" : 4,
			"name" : "node_MeshObject-519227392-PolyGlass24"
		},
		{
			"matrix" : 
			[
				1,
				0,
				0,
				0,
				0,
				1,
				0,
				0,
				0,
				0,
				1,
				0,
				0,
				0,
				0,
				1
			],
			"mesh" : 3,
			"name" : "node_MeshObject-590880576-PolyPaper22"
		},
		{
			"matrix" : 
			[
				1,
				0,
				0,
				0,
				0,
				1,
				0,
				0,
				0,
				0,
				1,
				0,
				0,
				0,
				0,
				1
			],
			"mesh" : 6,
			"name" : "node_MeshObject-72160512-PolyGem25"
		},
		{
			"matrix" : 
			[
				1,
				0,
				0,
				0,
				0,
				1,
				0,
				0,
				0,
				0,
				1,
				0,
				0,
				0,
				0,
				1
			],
			"mesh" : 2,
			"name" : "node_MeshObject-957755008-PolyPaper20"
		},
		{
			"matrix" : 
			[
				1,
				0,
				0,
				0,
				0,
				1,
				0,
				0,
				0,
				0,
				1,
				0,
				0,
				0,
				0,
				1
			],
			"mesh" : 0,
			"name" : "node_MeshObject111876352-PolyPaper22"
		}
	],
	"scene" : 0,
	"scenes" : 
	[
		{
			"extras" : {},
			"name" : "defaultScene",
			"nodes" : 
			[
				6,
				0,
				5,
				3,
				2,
				1,
				4
			]
		}
	]
}